<svg width="240" height="240" viewBox="0 0 240 240" fill="none" xmlns="http://www.w3.org/2000/svg">
<g filter="url(#filter0_ii_1_174)">
<path fill-rule="evenodd" clip-rule="evenodd" d="M55 20C46.1634 20 39 27.1634 39 36V204C39 212.837 46.1634 220 55 220H185C193.837 220 201 212.837 201 204V70L151 20H55Z" fill="#CCCCCC"/>
</g>
<g filter="url(#filter1_dd_1_174)">
<path d="M95 117.5C95 112.5 96 108.5 97 106C98 103.5 100 101 102.5 99C105 96.5 107.5 95 111 94C114 93 117 92.5 120.5 92.5C127.5 92.5 133 94.5 138 98.5C142.5 102.5 145 107.5 145 114C145 117 144 119.5 143 122C142 124.5 139.5 127.5 135.5 131C131.5 134.5 130 137 128.5 138.5C127 140 126.5 142 125.5 144C124.5 146 125 147.5 125 152.5H115C115 147.5 115.5 145 116 142.5C116.5 140 117.5 138 119 136C120.5 134 122 131.5 125.5 128C129 124.5 131.5 122 132.5 120.5C133.5 119 134.5 116.5 134.5 113C134.5 109.5 133 107 130.5 104.5C128 102 124.5 100.5 120 100.5C110 100.5 105 107.5 105 117.5H95ZM125 172.5H115V162.5H125V172.5Z" fill="white"/>
</g>
<path d="M196.309 65.3125H155.688L201 110.625V70L196.309 65.3125Z" fill="url(#paint0_linear_1_174)"/>
<path d="M167 70L201 70L151 20L151 54C151 62.8366 158.163 70 167 70Z" fill="#EAEAEA"/>
<defs>
<filter id="filter0_ii_1_174" x="39" y="19" width="162" height="202" filterUnits="userSpaceOnUse" color-interpolation-filters="sRGB">
<feFlood flood-opacity="0" result="BackgroundImageFix"/>
<feBlend mode="normal" in="SourceGraphic" in2="BackgroundImageFix" result="shape"/>
<feColorMatrix in="SourceAlpha" type="matrix" values="0 0 0 0 0 0 0 0 0 0 0 0 0 0 0 0 0 0 127 0" result="hardAlpha"/>
<feOffset dy="-2"/>
<feGaussianBlur stdDeviation="0.5"/>
<feComposite in2="hardAlpha" operator="arithmetic" k2="-1" k3="1"/>
<feColorMatrix type="matrix" values="0 0 0 0 0 0 0 0 0 0 0 0 0 0 0 0 0 0 0.3 0"/>
<feBlend mode="normal" in2="shape" result="effect1_innerShadow_1_174"/>
<feColorMatrix in="SourceAlpha" type="matrix" values="0 0 0 0 0 0 0 0 0 0 0 0 0 0 0 0 0 0 127 0" result="hardAlpha"/>
<feOffset dy="2"/>
<feGaussianBlur stdDeviation="0.5"/>
<feComposite in2="hardAlpha" operator="arithmetic" k2="-1" k3="1"/>
<feColorMatrix type="matrix" values="0 0 0 0 1 0 0 0 0 1 0 0 0 0 1 0 0 0 0.3 0"/>
<feBlend mode="normal" in2="effect1_innerShadow_1_174" result="effect2_innerShadow_1_174"/>
</filter>
<filter id="filter1_dd_1_174" x="94" y="91.5" width="59" height="91" filterUnits="userSpaceOnUse" color-interpolation-filters="sRGB">
<feFlood flood-opacity="0" result="BackgroundImageFix"/>
<feColorMatrix in="SourceAlpha" type="matrix" values="0 0 0 0 0 0 0 0 0 0 0 0 0 0 0 0 0 0 127 0" result="hardAlpha"/>
<feOffset dx="4" dy="6"/>
<feGaussianBlur stdDeviation="2"/>
<feColorMatrix type="matrix" values="0 0 0 0 0 0 0 0 0 0 0 0 0 0 0 0 0 0 0.1 0"/>
<feBlend mode="normal" in2="BackgroundImageFix" result="effect1_dropShadow_1_174"/>
<feColorMatrix in="SourceAlpha" type="matrix" values="0 0 0 0 0 0 0 0 0 0 0 0 0 0 0 0 0 0 127 0" result="hardAlpha"/>
<feOffset/>
<feGaussianBlur stdDeviation="0.5"/>
<feColorMatrix type="matrix" values="0 0 0 0 0 0 0 0 0 0 0 0 0 0 0 0 0 0 0.4 0"/>
<feBlend mode="normal" in2="effect1_dropShadow_1_174" result="effect2_dropShadow_1_174"/>
<feBlend mode="normal" in="SourceGraphic" in2="effect2_dropShadow_1_174" result="shape"/>
</filter>
<linearGradient id="paint0_linear_1_174" x1="165.844" y1="55.1563" x2="211.156" y2="100.469" gradientUnits="userSpaceOnUse">
<stop stop-opacity="0.2"/>
<stop offset="1" stop-opacity="0"/>
</linearGradient>
</defs>
</svg>
