<svg width="240" height="240" viewBox="0 0 240 240" fill="none" xmlns="http://www.w3.org/2000/svg">
<g filter="url(#filter0_ii_1_175)">
<path fill-rule="evenodd" clip-rule="evenodd" d="M55 20C46.1634 20 39 27.1634 39 36V204C39 212.837 46.1634 220 55 220H185C193.837 220 201 212.837 201 204V70L151 20H55Z" fill="#32BD7A"/>
</g>
<g filter="url(#filter1_dd_1_175)">
<path d="M97.55 170L119.944 137.858L142.454 170H153.125L125.121 131.03L151.109 95H140.438L119.944 124.201L99.55 95H88.8825L114.661 131.03L86.875 170H97.55Z" fill="white"/>
</g>
<path d="M196.309 65.3125H155.688L201 110.625V70L196.309 65.3125Z" fill="url(#paint0_linear_1_175)"/>
<path d="M167 70L201 70L151 20L151 54C151 62.8366 158.163 70 167 70Z" fill="#EBFFEC"/>
<defs>
<filter id="filter0_ii_1_175" x="39" y="19" width="162" height="202" filterUnits="userSpaceOnUse" color-interpolation-filters="sRGB">
<feFlood flood-opacity="0" result="BackgroundImageFix"/>
<feBlend mode="normal" in="SourceGraphic" in2="BackgroundImageFix" result="shape"/>
<feColorMatrix in="SourceAlpha" type="matrix" values="0 0 0 0 0 0 0 0 0 0 0 0 0 0 0 0 0 0 127 0" result="hardAlpha"/>
<feOffset dy="-2"/>
<feGaussianBlur stdDeviation="0.5"/>
<feComposite in2="hardAlpha" operator="arithmetic" k2="-1" k3="1"/>
<feColorMatrix type="matrix" values="0 0 0 0 0 0 0 0 0 0 0 0 0 0 0 0 0 0 0.3 0"/>
<feBlend mode="normal" in2="shape" result="effect1_innerShadow_1_175"/>
<feColorMatrix in="SourceAlpha" type="matrix" values="0 0 0 0 0 0 0 0 0 0 0 0 0 0 0 0 0 0 127 0" result="hardAlpha"/>
<feOffset dy="2"/>
<feGaussianBlur stdDeviation="0.5"/>
<feComposite in2="hardAlpha" operator="arithmetic" k2="-1" k3="1"/>
<feColorMatrix type="matrix" values="0 0 0 0 1 0 0 0 0 1 0 0 0 0 1 0 0 0 0.3 0"/>
<feBlend mode="normal" in2="effect1_innerShadow_1_175" result="effect2_innerShadow_1_175"/>
</filter>
<filter id="filter1_dd_1_175" x="85.875" y="94" width="75.25" height="86" filterUnits="userSpaceOnUse" color-interpolation-filters="sRGB">
<feFlood flood-opacity="0" result="BackgroundImageFix"/>
<feColorMatrix in="SourceAlpha" type="matrix" values="0 0 0 0 0 0 0 0 0 0 0 0 0 0 0 0 0 0 127 0" result="hardAlpha"/>
<feOffset dx="4" dy="6"/>
<feGaussianBlur stdDeviation="2"/>
<feColorMatrix type="matrix" values="0 0 0 0 0 0 0 0 0 0 0 0 0 0 0 0 0 0 0.1 0"/>
<feBlend mode="normal" in2="BackgroundImageFix" result="effect1_dropShadow_1_175"/>
<feColorMatrix in="SourceAlpha" type="matrix" values="0 0 0 0 0 0 0 0 0 0 0 0 0 0 0 0 0 0 127 0" result="hardAlpha"/>
<feOffset/>
<feGaussianBlur stdDeviation="0.5"/>
<feColorMatrix type="matrix" values="0 0 0 0 0 0 0 0 0 0 0 0 0 0 0 0 0 0 0.4 0"/>
<feBlend mode="normal" in2="effect1_dropShadow_1_175" result="effect2_dropShadow_1_175"/>
<feBlend mode="normal" in="SourceGraphic" in2="effect2_dropShadow_1_175" result="shape"/>
</filter>
<linearGradient id="paint0_linear_1_175" x1="165.844" y1="55.1563" x2="211.156" y2="100.469" gradientUnits="userSpaceOnUse">
<stop stop-opacity="0.2"/>
<stop offset="1" stop-opacity="0"/>
</linearGradient>
</defs>
</svg>
