<svg width="240" height="240" viewBox="0 0 240 240" fill="none" xmlns="http://www.w3.org/2000/svg">
<g filter="url(#filter0_ii_1_168)">
<path fill-rule="evenodd" clip-rule="evenodd" d="M55 20C46.1634 20 39 27.1634 39 36V204C39 212.837 46.1634 220 55 220H185C193.837 220 201 212.837 201 204V70L151 20H55Z" fill="#576A95"/>
</g>
<g filter="url(#filter1_dd_1_168)">
<path d="M133.75 144.901V172.061C133.75 172.953 133.573 173.837 133.231 174.66C132.889 175.484 132.388 176.233 131.756 176.863C130.48 178.136 128.75 178.852 126.946 178.851H113.054C111.251 178.852 109.521 178.137 108.244 176.864C107.612 176.234 107.11 175.485 106.768 174.661C106.426 173.836 106.25 172.952 106.25 172.06V144.901H133.75ZM126.946 160.461H113.054V174.099H126.946V160.461ZM133.523 117.741V131.379H119.859V117.741H133.523ZM120.029 22V35.75H133.75V49.5H120.028V62.2312H133.75V75.9813H120.029V89.5625H133.75V103.144H120.029V116.724H106.25V103.142H119.971V89.5612H106.25V75.9813H119.971V62.2312H106.25V48.4813H119.971V35.75H106.25V22H120.029Z" fill="white"/>
</g>
<path d="M196.309 65.3125H155.688L201 110.625V70L196.309 65.3125Z" fill="url(#paint0_linear_1_168)"/>
<path d="M167 70L201 70L151 20L151 54C151 62.8366 158.163 70 167 70Z" fill="#BBC3D4"/>
<defs>
<filter id="filter0_ii_1_168" x="39" y="19" width="162" height="202" filterUnits="userSpaceOnUse" color-interpolation-filters="sRGB">
<feFlood flood-opacity="0" result="BackgroundImageFix"/>
<feBlend mode="normal" in="SourceGraphic" in2="BackgroundImageFix" result="shape"/>
<feColorMatrix in="SourceAlpha" type="matrix" values="0 0 0 0 0 0 0 0 0 0 0 0 0 0 0 0 0 0 127 0" result="hardAlpha"/>
<feOffset dy="-2"/>
<feGaussianBlur stdDeviation="0.5"/>
<feComposite in2="hardAlpha" operator="arithmetic" k2="-1" k3="1"/>
<feColorMatrix type="matrix" values="0 0 0 0 0 0 0 0 0 0 0 0 0 0 0 0 0 0 0.3 0"/>
<feBlend mode="normal" in2="shape" result="effect1_innerShadow_1_168"/>
<feColorMatrix in="SourceAlpha" type="matrix" values="0 0 0 0 0 0 0 0 0 0 0 0 0 0 0 0 0 0 127 0" result="hardAlpha"/>
<feOffset dy="2"/>
<feGaussianBlur stdDeviation="0.5"/>
<feComposite in2="hardAlpha" operator="arithmetic" k2="-1" k3="1"/>
<feColorMatrix type="matrix" values="0 0 0 0 1 0 0 0 0 1 0 0 0 0 1 0 0 0 0.3 0"/>
<feBlend mode="normal" in2="effect1_innerShadow_1_168" result="effect2_innerShadow_1_168"/>
</filter>
<filter id="filter1_dd_1_168" x="105.25" y="21" width="36.5" height="167.852" filterUnits="userSpaceOnUse" color-interpolation-filters="sRGB">
<feFlood flood-opacity="0" result="BackgroundImageFix"/>
<feColorMatrix in="SourceAlpha" type="matrix" values="0 0 0 0 0 0 0 0 0 0 0 0 0 0 0 0 0 0 127 0" result="hardAlpha"/>
<feOffset dx="4" dy="6"/>
<feGaussianBlur stdDeviation="2"/>
<feColorMatrix type="matrix" values="0 0 0 0 0 0 0 0 0 0 0 0 0 0 0 0 0 0 0.1 0"/>
<feBlend mode="normal" in2="BackgroundImageFix" result="effect1_dropShadow_1_168"/>
<feColorMatrix in="SourceAlpha" type="matrix" values="0 0 0 0 0 0 0 0 0 0 0 0 0 0 0 0 0 0 127 0" result="hardAlpha"/>
<feOffset/>
<feGaussianBlur stdDeviation="0.5"/>
<feColorMatrix type="matrix" values="0 0 0 0 0 0 0 0 0 0 0 0 0 0 0 0 0 0 0.4 0"/>
<feBlend mode="normal" in2="effect1_dropShadow_1_168" result="effect2_dropShadow_1_168"/>
<feBlend mode="normal" in="SourceGraphic" in2="effect2_dropShadow_1_168" result="shape"/>
</filter>
<linearGradient id="paint0_linear_1_168" x1="165.844" y1="55.1563" x2="211.156" y2="100.469" gradientUnits="userSpaceOnUse">
<stop stop-opacity="0.2"/>
<stop offset="1" stop-opacity="0"/>
</linearGradient>
</defs>
</svg>
